<svg width="21" height="20" viewBox="0 0 21 20" fill="none" xmlns="http://www.w3.org/2000/svg">
<path d="M12.6242 10C12.6242 10.5526 12.4047 11.0825 12.014 11.4732C11.6233 11.8639 11.0934 12.0834 10.5409 12.0834C9.98832 12.0834 9.45841 11.8639 9.06771 11.4732C8.67701 11.0825 8.45752 10.5526 8.45752 10C8.45752 9.44749 8.67701 8.91758 9.06771 8.52688C9.45841 8.13618 9.98832 7.91669 10.5409 7.91669C11.0934 7.91669 11.6233 8.13618 12.014 8.52688C12.4047 8.91758 12.6242 9.44749 12.6242 10Z" stroke="#CE7420" stroke-width="1.25" stroke-linecap="round" stroke-linejoin="round"/>
<path d="M15.925 10H15.9166M5.08329 10H5.07579M2.16663 10C2.16663 7.05251 2.16663 5.57834 3.04413 4.59418C3.18468 4.4364 3.33857 4.2914 3.50579 4.15918C4.55163 3.33334 6.11746 3.33334 9.24996 3.33334H11.75C14.8825 3.33334 16.4483 3.33334 17.4933 4.15834C17.6611 4.29168 17.8152 4.43695 17.9558 4.59418C18.8333 5.57751 18.8333 7.05251 18.8333 10C18.8333 12.9475 18.8333 14.4217 17.9558 15.4058C17.8145 15.5639 17.6597 15.7095 17.4933 15.8408C16.4483 16.6667 14.8833 16.6667 11.75 16.6667H9.24996C6.11746 16.6667 4.55163 16.6667 3.50579 15.8417C3.33959 15.71 3.18512 15.5642 3.04413 15.4058C2.16663 14.4225 2.16663 12.9475 2.16663 10Z" stroke="#CE7420" stroke-width="1.25" stroke-linecap="round" stroke-linejoin="round"/>
</svg>
